<svg width="16" height="14" viewBox="0 0 16 14" fill="none" xmlns="http://www.w3.org/2000/svg">
<g id="heart-icon" clip-path="url(#clip0_94_649)">
<g id="Group">
<g id="Group_2">
<path id="Vector" d="M9.26249 3.38242C10.4258 2.34109 12.3066 2.20331 13.5102 3.09289C14.8604 4.09291 14.9125 5.80797 13.7273 6.86904L13.7271 6.86923L8.02318 11.9786C8.02057 11.9791 8.01692 11.9796 8.01241 11.9796C8.00791 11.9796 8.00425 11.9791 8.00164 11.9786L2.2982 6.86963C1.11518 5.80864 1.16718 4.093 2.51761 3.09286C3.72159 2.20303 5.60484 2.34161 6.76455 3.38176L6.76577 3.38286L7.34742 3.90282L8.01389 4.4986L8.68036 3.90282L9.262 3.38286L9.26249 3.38242Z" stroke="white" stroke-width="2"/>
</g>
</g>
</g>
<defs>
<clipPath id="clip0_94_649">
<rect width="15.1169" height="13.1143" fill="white" transform="translate(0.455444 0.685547)"/>
</clipPath>
</defs>
</svg>
